<?xml version="1.0" encoding="UTF-8" standalone="no"?>
<!-- Created with Inkscape (http://www.inkscape.org/) -->

<svg
   xmlns:dc="http://purl.org/dc/elements/1.1/"
   xmlns:cc="http://creativecommons.org/ns#"
   xmlns:rdf="http://www.w3.org/1999/02/22-rdf-syntax-ns#"
   xmlns:svg="http://www.w3.org/2000/svg"
   xmlns="http://www.w3.org/2000/svg"
   xmlns:sodipodi="http://sodipodi.sourceforge.net/DTD/sodipodi-0.dtd"
   xmlns:inkscape="http://www.inkscape.org/namespaces/inkscape"
   width="46"
   height="36"
   id="svg2"
   version="1.1"
   inkscape:version="0.48.2 r9819"
   sodipodi:docname="quoteicon.svg"
   inkscape:export-filename="/Users/Scott/Desktop/retinaquoteicon.png"
   inkscape:export-xdpi="89.310852"
   inkscape:export-ydpi="89.310852">
  <defs
     id="defs4" />
  <sodipodi:namedview
     id="base"
     pagecolor="#ffffff"
     bordercolor="#666666"
     borderopacity="1.0"
     inkscape:pageopacity="0.0"
     inkscape:pageshadow="2"
     inkscape:zoom="11.2"
     inkscape:cx="21.428571"
     inkscape:cy="16.428571"
     inkscape:document-units="px"
     inkscape:current-layer="layer1"
     showgrid="false"
     inkscape:window-width="880"
     inkscape:window-height="753"
     inkscape:window-x="562"
     inkscape:window-y="0"
     inkscape:window-maximized="0" />
  <metadata
     id="metadata7">
    <rdf:RDF>
      <cc:Work
         rdf:about="">
        <dc:format>image/svg+xml</dc:format>
        <dc:type
           rdf:resource="http://purl.org/dc/dcmitype/StillImage" />
        <dc:title></dc:title>
      </cc:Work>
    </rdf:RDF>
  </metadata>
  <g
     inkscape:label="Layer 1"
     inkscape:groupmode="layer"
     id="layer1"
     transform="translate(0,-1016.3622)">
    <path
       style="fill:#000000"
       d="m 0.04131464,1037.4109 c -0.03409354,-8.4802 5.16903016,-17.7628 14.87563536,-20.1328 4.234335,-1.0339 5.445215,-0.6213 5.445215,1.8552 0,1.7517 -0.82739,3.1848 -1.838643,3.1848 -2.824245,0 -7.793889,6.5057 -7.793889,9.6768 0,1.5558 1.514213,2.2037 3.692298,2.2037 3.373466,0 3.960156,1.3201 3.960156,8.9104 l 0,8.9103 -9.1410206,0 -9.14102058,0 z m 26.26108436,2.8383 c 0,-9.4085 0.89386,-12.7704 4.455174,-16.756 5.593896,-6.2605 15.345603,-9.0311 15.345603,-4.3599 0,1.7517 -1.305201,3.1848 -2.900449,3.1848 -2.88515,0 -6.99994,5.7433 -6.99994,9.7702 0,1.1607 1.782071,2.1103 3.960156,2.1103 3.373466,0 3.960156,1.3201 3.960156,8.9104 l 0,8.9103 -8.910351,0 -8.910349,0 z"
       id="path3120"
       inkscape:connector-curvature="0"
       sodipodi:nodetypes="ssssssscccsssssssscccs"
       inkscape:export-filename="/Users/Scott/Desktop/retinaquoteicon.png"
       inkscape:export-xdpi="5.5599999"
       inkscape:export-ydpi="5.5599999" />
  </g>
</svg>
