<?xml version="1.0" encoding="UTF-8" standalone="no"?>
<!-- Created with Inkscape (http://www.inkscape.org/) -->

<svg
   xmlns:dc="http://purl.org/dc/elements/1.1/"
   xmlns:cc="http://creativecommons.org/ns#"
   xmlns:rdf="http://www.w3.org/1999/02/22-rdf-syntax-ns#"
   xmlns:svg="http://www.w3.org/2000/svg"
   xmlns="http://www.w3.org/2000/svg"
   xmlns:sodipodi="http://sodipodi.sourceforge.net/DTD/sodipodi-0.dtd"
   xmlns:inkscape="http://www.inkscape.org/namespaces/inkscape"
   width="50"
   height="50"
   id="svg2"
   version="1.1"
   inkscape:version="0.48.2 r9819"
   inkscape:export-filename="/Users/Scott/Desktop/texticon.png"
   inkscape:export-xdpi="90"
   inkscape:export-ydpi="90"
   sodipodi:docname="New document 1">
  <defs
     id="defs4" />
  <sodipodi:namedview
     id="base"
     pagecolor="#ffffff"
     bordercolor="#666666"
     borderopacity="1.0"
     inkscape:pageopacity="0.0"
     inkscape:pageshadow="2"
     inkscape:zoom="7.9195959"
     inkscape:cx="32.200519"
     inkscape:cy="32.64588"
     inkscape:document-units="px"
     inkscape:current-layer="layer1"
     showgrid="false"
     showguides="true"
     inkscape:guide-bbox="true"
     inkscape:window-width="1029"
     inkscape:window-height="779"
     inkscape:window-x="637"
     inkscape:window-y="22"
     inkscape:window-maximized="0">
    <inkscape:grid
       type="xygrid"
       id="grid3971"
       empspacing="5"
       visible="true"
       enabled="true"
       snapvisiblegridlinesonly="true" />
  </sodipodi:namedview>
  <metadata
     id="metadata7">
    <rdf:RDF>
      <cc:Work
         rdf:about="">
        <dc:format>image/svg+xml</dc:format>
        <dc:type
           rdf:resource="http://purl.org/dc/dcmitype/StillImage" />
        <dc:title></dc:title>
      </cc:Work>
    </rdf:RDF>
  </metadata>
  <g
     inkscape:label="Layer 1"
     inkscape:groupmode="layer"
     id="layer1"
     transform="translate(0,-1002.3622)">
    <rect
       style="fill:#3f3f3f;fill-opacity:1;stroke-width:0;stroke-miterlimit:4;stroke-dasharray:none"
       id="rect3054"
       width="50.951992"
       height="3.6227334"
       x="719.66699"
       y="699.60333"
       transform="matrix(0.70710678,0.70710678,-0.70710678,0.70710678,0,0)" />
    <rect
       y="712.37067"
       x="719.66699"
       height="3.6227334"
       width="50.951992"
       id="rect3056"
       style="fill:#3f3f3f;fill-opacity:1;stroke-width:0;stroke-miterlimit:4;stroke-dasharray:none"
       transform="matrix(0.70710678,0.70710678,-0.70710678,0.70710678,0,0)" />
    <rect
       style="fill:#3f3f3f;fill-opacity:1;stroke-width:0;stroke-miterlimit:4;stroke-dasharray:none"
       id="rect3058"
       width="50.951992"
       height="3.6227334"
       x="719.66699"
       y="705.81134"
       transform="matrix(0.70710678,0.70710678,-0.70710678,0.70710678,0,0)" />
    <rect
       style="fill:#ffffff;fill-opacity:1;stroke-width:0;stroke-miterlimit:4;stroke-dasharray:none"
       id="rect3130"
       width="12.248099"
       height="48.487324"
       x="736.2832"
       y="684.81329"
       transform="matrix(0.70710678,0.70710678,-0.70710678,0.70710678,0,0)" />
    <rect
       y="-738.6214"
       x="684.48932"
       height="3.5894127"
       width="50.483349"
       id="rect3066"
       style="fill:#3f3f3f;fill-opacity:1;stroke-width:0;stroke-miterlimit:4;stroke-dasharray:none"
       transform="matrix(-0.70710678,0.70710678,-0.70710678,-0.70710678,0,0)" />
    <rect
       style="fill:#3f3f3f;fill-opacity:1;stroke-width:0;stroke-miterlimit:4;stroke-dasharray:none"
       id="rect3072"
       width="50.483349"
       height="3.5894127"
       x="684.48944"
       y="-751.62286"
       transform="matrix(-0.70710678,0.70710678,-0.70710678,-0.70710678,0,0)" />
    <rect
       y="-744.94647"
       x="684.48932"
       height="3.5894127"
       width="50.483349"
       id="rect3074"
       style="fill:#3f3f3f;fill-opacity:1;stroke-width:0;stroke-miterlimit:4;stroke-dasharray:none"
       transform="matrix(-0.70710678,0.70710678,-0.70710678,-0.70710678,0,0)" />
    <rect
       style="fill:#3f3f3f;fill-opacity:1;stroke-width:0;stroke-miterlimit:4;stroke-dasharray:none"
       id="rect3076"
       width="15.22821"
       height="3.5895047"
       x="-750.94086"
       y="-734.97272"
       transform="matrix(-0.70710678,-0.70710678,0.70710678,-0.70710678,0,0)" />
    <rect
       y="767.02948"
       x="-715.25745"
       height="3.5895047"
       width="15.22821"
       id="rect3078"
       style="fill:#3f3f3f;fill-opacity:1;stroke-width:0;stroke-miterlimit:4;stroke-dasharray:none"
       transform="matrix(0.70710678,-0.70710678,0.70710678,0.70710678,0,0)" />
    <path
       style="fill:#3f3f3f;fill-opacity:1;stroke-width:0;stroke-miterlimit:4;stroke-dasharray:none"
       d="m 2.5717241,1003.5791 -9.9e-6,11.5954 2.0001286,1e-4 9.5955982,-9.5659 -2e-5,-2.0292 -11.5953957,10e-5 z"
       id="rect3082"
       inkscape:connector-curvature="0" />
    <path
       id="path3124"
       d="m 47.438297,1003.7706 -11.71237,2e-4 7.1e-5,2.0204 9.662508,9.6923 2.049725,0 1.15e-4,-11.7126 z"
       style="fill:#3f3f3f;fill-opacity:1;stroke-width:0;stroke-miterlimit:4;stroke-dasharray:none"
       inkscape:connector-curvature="0" />
    <path
       style="fill:#ffffff;fill-opacity:1;stroke-width:0;stroke-miterlimit:4;stroke-dasharray:none"
       d="m 4.7723233,1009.8622 4.4034855,-4.3887 -1.85e-5,-0.088 -4.4757896,-10e-5 -7e-7,4.4758 0.072742,-6e-4 z"
       id="path3128"
       inkscape:connector-curvature="0" />
    <path
       inkscape:connector-curvature="0"
       id="path3965"
       d="m 41.2,1005.459 4.388998,4.4032 0.08785,-2e-4 1.65e-4,-4.4757 -4.475758,10e-5 7.14e-4,0.073 z"
       style="fill:#ffffff;fill-opacity:1;stroke-width:0;stroke-miterlimit:4;stroke-dasharray:none" />
  </g>
</svg>
